<svg xmlns="http://www.w3.org/2000/svg" viewBox="0 0 978.49 170.71"><defs><style>.cls-1{fill:#fff;}</style></defs><title>Asset 2</title><g id="Layer_2" data-name="Layer 2"><g id="Layer_1-2" data-name="Layer 1"><path class="cls-1" d="M254.67,36.65H224.89a6.39,6.39,0,0,0-6.21,4.26l-29.78,92-29.79-92a5.86,5.86,0,0,0-6-4.26H122.62a2.75,2.75,0,0,0-2.48,1.42,2.47,2.47,0,0,0-.5,2.6l19.12,51.54c-12.91,27-39,45.4-62.56,45.4-23.83.24-37.73-16.79-38-34.28C37.73,84.18,48.65,66.68,74.71,66,85.88,65.5,97.8,69,107,72.59a2.44,2.44,0,0,0,3-.71,2.52,2.52,0,0,0,1-3.07c-3.48-9-6.71-18-9.93-27.19a6.19,6.19,0,0,0-4-3.79,83.05,83.05,0,0,0-26.56-4.25C35.74,34.28,0,56.27,0,103.09c.25,35.7,28.3,67.39,75,67.62,32.27,0,59.82-19.38,76-45.39l13.4,36.41a8,8,0,0,0,7.94,5.2H205a8,8,0,0,0,7.94-5.2L257.65,40.67a3.17,3.17,0,0,0-.49-2.6A2.75,2.75,0,0,0,254.67,36.65Z"/><path class="cls-1" d="M458.46,33.81c-17.37,0-31.52,6.62-40.21,20.1-7.69-12.77-20.85-20.1-37.73-20.1-15.63,0-28.79,6.15-37,18.21V39.72a3.21,3.21,0,0,0-3.23-3.07H310.77a3.21,3.21,0,0,0-3.22,3.07V164.09a3,3,0,0,0,3.22,2.84h31.78a3,3,0,0,0,3.22-2.84V89.61c0-31,42-31,42,0v74.48a3,3,0,0,0,3.23,2.84h31.77a2.8,2.8,0,0,0,3-2.84V89.61c0-30.73,41.95-31,41.95,0v74.48a3,3,0,0,0,3.23,2.84h31.77a3,3,0,0,0,3.23-2.84V84.17C505.88,53.44,487,33.81,458.46,33.81Z"/><path class="cls-1" d="M641.4,140.69h-4.71c-6,0-8.19-2.37-8.19-7.33V86.78c0-37.36-22.84-53-58.33-53A121,121,0,0,0,528,41.62a2.57,2.57,0,0,0-2,2.6V68.33a3.73,3.73,0,0,0,1.24,2.6,3.32,3.32,0,0,0,3,.24c12.16-4.49,23.09-6.62,34.5-6.62,18.62,0,27.31,6.86,27.31,22v7.33c-20.6-15.84-76.7-14.9-76.7,34.05,0,22.7,16.88,42.09,44.68,42.09,8.93,0,30.28-3.08,36-19.39h1.24c4.22,18.91,31.28,20.33,45.43,14.66a3.08,3.08,0,0,0,2-2.84V143.52A3,3,0,0,0,641.4,140.69ZM592,121.06c0,29.08-40.46,26.72-40.46,5.68,0-23.65,32-17,40.46-10.64Z"/><path class="cls-1" d="M733.25,90.56l38-48.95a3.83,3.83,0,0,0,.24-3.31,3.82,3.82,0,0,0-3-1.65h-34A2.74,2.74,0,0,0,732,38.07L691.3,91.27V3.07A3.21,3.21,0,0,0,688.07,0H656.3a3.21,3.21,0,0,0-3.23,3.07v161a3,3,0,0,0,3.23,2.84h31.77a3,3,0,0,0,3.23-2.84V135l15.64-18.44,28.54,48.94a3.48,3.48,0,0,0,2.73,1.42H773a2.87,2.87,0,0,0,2.73-1.42,3.33,3.33,0,0,0,0-3.07Z"/><path class="cls-1" d="M830.55,33.81c-36.24,0-63.79,30-62.55,69.52,1.24,40.67,29.79,65.26,70.74,66.67a97,97,0,0,0,41.7-8.51,3.33,3.33,0,0,0,2-2.83V136a2.59,2.59,0,0,0-1.49-2.37,2.8,2.8,0,0,0-2.73-.47c-13.65,4.73-24.33,6.62-36.74,6.62-21.1,0-33-13.24-35-29.79H885.9a3.18,3.18,0,0,0,3.23-2.84C895.58,61.48,868.78,33.81,830.55,33.81ZM806.72,85.12c1.74-15.37,12.66-22.93,23.83-22.93,11.17.23,22.59,7.8,23.58,22.93Z"/><path class="cls-1" d="M975.76,34.29a63.69,63.69,0,0,0-7.2-.48,36.32,36.32,0,0,0-32.27,20.1V39.72a3.21,3.21,0,0,0-3.22-3.07H904a3.21,3.21,0,0,0-3.22,3.07V164.09a3,3,0,0,0,3.22,2.84H935.3a3,3,0,0,0,3.23-2.84V89.85c0-14.9,6-22.46,20.1-22.46h16.63a3.21,3.21,0,0,0,3.23-3.08V37.12A3.07,3.07,0,0,0,975.76,34.29Z"/></g></g></svg>